<svg fill="#39ff14" height="250px" width="250px" version="1.1" id="Capa_1" xmlns="http://www.w3.org/2000/svg" xmlns:xlink="http://www.w3.org/1999/xlink" viewBox="0 0 464.333 464.333" xml:space="preserve"><g id="SVGRepo_bgCarrier" stroke-width="0"></g><g id="SVGRepo_tracerCarrier" stroke-linecap="round" stroke-linejoin="round"></g><g id="SVGRepo_iconCarrier"> <path d="M417.311,362.939h-15.794l-8.121-267.758c-0.39-12.853-9.491-23.275-21.593-25.731v-7.881 c3.952-1.215,7.448-3.72,9.869-7.196c3.5-5.024,4.323-11.454,2.2-17.198l-12.41-33.582C370.664,1.434,368.605,0,366.303,0 s-4.361,1.434-5.159,3.594l-12.41,33.582c-2.123,5.744-1.3,12.173,2.2,17.198c2.421,3.476,5.917,5.98,9.869,7.196v7.881 c-12.101,2.457-21.202,12.879-21.592,25.731l-8.121,267.758h-20.302v-19.377c5.814-1.225,11.027-4.612,14.49-9.583 c4.404-6.324,5.439-14.414,2.768-21.642c0,0-17.144-46.322-17.258-46.538V122.429c0-12.873-10.473-23.346-23.346-23.346h-28.751 V88.012c5.553-1.334,10.507-4.656,13.841-9.443c4.404-6.323,5.439-14.414,2.769-21.642L258.35,11.06 c-0.798-2.16-2.857-3.594-5.159-3.594s-4.361,1.434-5.159,3.594l-16.95,45.867c-2.671,7.229-1.636,15.319,2.768,21.642 c3.334,4.786,8.288,8.109,13.841,9.443v11.071h-28.751c-12.873,0-23.346,10.473-23.346,23.346v29.376h-50.025v-12.023 c0.012-0.003,0.023-0.005,0.035-0.008c8.4-2.185,15.431-7.979,19.292-15.899c4.043-8.295,4.262-17.896,0.599-26.341 c-8.568-19.718-13.882-40.897-15.795-62.95c-0.208-2.39-1.939-4.369-4.279-4.893c-2.336-0.522-4.75,0.531-5.956,2.604 c-12.386,21.311-21.345,44.643-26.628,69.345c-2.474,11.538,1.078,23.575,9.27,31.414c3.71,3.55,7.989,5.878,12.464,6.893v11.857 H54.055c-13.929,0-25.26,11.332-25.26,25.26v281.767c0,3.038,2.462,5.5,5.5,5.5l395.744,0c3.038,0,5.5-2.462,5.5-5.5v-77.666 C435.538,371.116,427.362,362.939,417.311,362.939z M242.876,72.282c-2.384-3.422-2.922-7.629-1.476-11.542c0,0,0,0,0,0 l11.791-31.907l11.791,31.907c1.446,3.913,0.908,8.12-1.477,11.542c-2.384,3.422-6.144,5.385-10.314,5.385 C249.019,77.667,245.26,75.705,242.876,72.282z M123.59,103.947c0-0.001,0-0.002,0-0.003c3.815-17.841,9.636-34.924,17.36-50.983 c2.855,16.997,7.694,33.403,14.451,48.953c2.382,5.491,2.237,11.738-0.396,17.141c-2.486,5.101-6.809,8.678-12.177,10.074 c-4.452,1.164-9.234-0.304-13.12-4.022C125.434,121.017,121.582,113.31,123.59,103.947z M424.538,381.167v3.642h-7.515 c-15.004,0-27.211,12.207-27.211,27.212c0,6.019-4.897,10.916-10.917,10.916c-6.019,0-10.916-4.897-10.916-10.916v-0.53 c0-11.208-9.119-20.328-20.328-20.328s-20.327,9.119-20.327,20.328v14.298c0,5.435-4.422,9.857-9.857,9.857 c-5.436,0-9.857-4.422-9.857-9.857v-14.828c0-11.5-9.356-20.857-20.857-20.857s-20.857,9.356-20.857,20.857v9.002 c0,4.559-3.709,8.269-8.269,8.269s-8.268-3.709-8.268-8.269v-15.357c0-11.5-9.356-20.857-20.857-20.857 c-11.5,0-20.857,9.356-20.857,20.857v0.761c0,5.6-4.556,10.155-10.155,10.155s-10.155-4.556-10.155-10.155v-18.236v-5.964 c0-3.985,3.242-7.228,7.228-7.228h222.748C421.296,373.939,424.538,377.182,424.538,381.167z M359.96,48.085 c-1.466-2.104-1.797-4.691-0.908-7.098l7.25-19.621l7.251,19.621c0.889,2.406,0.558,4.993-0.908,7.098 c-1.466,2.105-3.778,3.312-6.343,3.312S361.427,50.19,359.96,48.085z M350.206,95.515c0.266-8.757,7.336-15.616,16.097-15.616 c8.761,0,15.832,6.859,16.098,15.616l8.11,267.425h-48.416L350.206,95.515z M206.593,362.939v-220.61h1.504 c6.564,0,11.905,5.34,11.905,11.905v31.667c0,8.678,7.06,15.738,15.738,15.738c8.678,0,15.738-7.06,15.738-15.738v-9.179 c0-5.338,4.342-9.681,9.68-9.681s9.681,4.343,9.681,9.681v14.122c0,11.014,8.96,19.974,19.975,19.974 c3.229,0,6.272-0.788,8.974-2.154v60.484l-15.96,43.19c-2.671,7.228-1.636,15.318,2.769,21.642c3.203,4.598,7.904,7.84,13.192,9.271 v19.689H206.593z M317.728,316.15c1.446,3.912,0.908,8.119-1.476,11.542c-2.384,3.423-6.144,5.386-10.315,5.386 c-4.171,0-7.931-1.963-10.314-5.386c-2.384-3.422-2.922-7.629-1.477-11.542l11.791-31.907L317.728,316.15z M218.939,110.083h68.503 c6.808,0,12.346,5.538,12.346,12.346v52.528v15.887c0,4.948-4.026,8.974-8.974,8.974c-4.949,0-8.975-4.026-8.975-8.974v-14.122 c0-11.403-9.277-20.681-20.681-20.681s-20.68,9.277-20.68,20.681v9.179c0,2.613-2.125,4.738-4.738,4.738 c-2.612,0-4.738-2.125-4.738-4.738v-31.667c0-12.63-10.275-22.905-22.905-22.905h-1.504v-8.9 C206.593,115.621,212.132,110.083,218.939,110.083z M54.055,162.805h141.538v90.397c-16.949,2.651-29.958,17.349-29.958,35.03 v14.524c0,4.754-3.868,8.621-8.622,8.621s-8.621-3.867-8.621-8.621v-61.075c0-12.182-9.911-22.093-22.093-22.093 s-22.093,9.911-22.093,22.093v32.833c0,6.7-5.451,12.151-12.152,12.151c-6.7,0-12.151-5.451-12.151-12.151v-66.537 c0-13.453-10.945-24.398-24.398-24.398h-15.71v-6.513C39.795,169.202,46.192,162.805,54.055,162.805z M39.795,194.578h15.71 c7.388,0,13.398,6.011,13.398,13.398v66.537c0,12.766,10.386,23.151,23.151,23.151c12.766,0,23.152-10.386,23.152-23.151v-32.833 c0-6.117,4.976-11.093,11.093-11.093s11.093,4.976,11.093,11.093v61.075c0,10.819,8.802,19.621,19.622,19.621 s19.621-8.802,19.621-19.621v-14.524c0-11.595,8.113-21.324,18.958-23.827v98.535h-1.03c-10.051,0-18.228,8.177-18.228,18.228v5.964 v18.236v47.965H39.795V194.578z M187.335,453.333v-29.416c3.017,1.658,6.477,2.605,10.155,2.605c11.665,0,21.155-9.49,21.155-21.155 v-0.761c0-5.435,4.422-9.857,9.857-9.857c5.436,0,9.857,4.422,9.857,9.857v15.357c0,10.625,8.644,19.269,19.268,19.269 s19.269-8.644,19.269-19.269v-9.002c0-5.435,4.422-9.857,9.857-9.857s9.857,4.422,9.857,9.857v14.828 c0,11.5,9.356,20.857,20.857,20.857c11.5,0,20.857-9.356,20.857-20.857v-14.298c0-5.143,4.185-9.328,9.328-9.328 s9.327,4.185,9.327,9.328v0.53c0,12.084,9.832,21.916,21.916,21.916c12.085,0,21.917-9.832,21.917-21.917 c0-8.939,7.272-16.211,16.211-16.211h7.515v57.524L187.335,453.333z"></path> </g></svg>