<svg fill="#39ff14" height="250px" width="250px" version="1.1" id="Capa_1" xmlns="http://www.w3.org/2000/svg" xmlns:xlink="http://www.w3.org/1999/xlink" viewBox="0 0 445.951 445.951" xml:space="preserve"><g id="SVGRepo_bgCarrier" stroke-width="0"></g><g id="SVGRepo_tracerCarrier" stroke-linecap="round" stroke-linejoin="round"></g><g id="SVGRepo_iconCarrier"> <path d="M444.34,49.722l-34.335-34.335c-1.275-1.275-3.096-1.845-4.87-1.522c-1.775,0.321-3.279,1.493-4.026,3.134l-7.933,17.441 l-11.526-11.526c-1.275-1.275-3.093-1.844-4.87-1.522c-1.774,0.321-3.279,1.493-4.025,3.134l-28.44,62.528l-22.335-22.335 c-4.403-4.403-10.257-6.828-16.484-6.828c-6.227,0-12.081,2.425-16.484,6.828L64.718,289.011 c-4.403,4.403-6.828,10.257-6.828,16.484s2.425,12.081,6.828,16.484l25.697,25.697L3.223,387.333 c-1.642,0.747-2.813,2.251-3.135,4.025c-0.322,1.775,0.247,3.595,1.522,4.87l34.335,34.335c1.041,1.041,2.444,1.611,3.889,1.611 c0.326,0,0.654-0.029,0.98-0.088c1.775-0.321,3.279-1.493,4.026-3.134l7.933-17.441l11.526,11.526 c1.276,1.275,3.094,1.848,4.87,1.522c1.774-0.321,3.279-1.493,4.025-3.134l28.44-62.528l18.974,18.974 c4.545,4.544,10.515,6.817,16.484,6.817c5.969,0,11.939-2.272,16.484-6.817l79.646-79.646h0.681v-0.681l143.966-143.965 c4.403-4.403,6.828-10.257,6.828-16.484c0-6.227-2.425-12.081-6.828-16.484l-22.336-22.336l87.192-39.657 c1.642-0.747,2.813-2.251,3.135-4.025C446.184,52.817,445.615,50.997,444.34,49.722z M66.469,409.649l-11.526-11.526 c-1.275-1.274-3.093-1.846-4.87-1.522c-1.774,0.321-3.279,1.493-4.025,3.135l-7.933,17.441l-23.114-23.114l73.833-33.581 L66.469,409.649z M296.789,72.496c2.325-2.326,5.417-3.606,8.706-3.606c3.289,0,6.381,1.28,8.706,3.606l45.875,45.875 l-109.168,0.006L296.789,72.496z M129.361,239.925h146.607l-47.3,47.3H82.061L129.361,239.925z M140.361,228.925l16.47-16.47 h146.607l-16.47,16.47H140.361z M167.831,201.454l44.61-44.61h146.607l-44.61,44.61H167.831z M145.8,370.092 c-4.8,4.801-12.611,4.801-17.412,0L83.99,325.695h106.208L145.8,370.092z M201.198,314.695H72.99l-0.494-0.494 c-2.326-2.325-3.606-5.417-3.606-8.706c0-2.654,0.846-5.172,2.391-7.27h146.386L201.198,314.695z M370.093,145.8l-0.044,0.044 H223.441l16.466-16.466l131.064-0.007c1.765,2.182,2.727,4.878,2.727,7.724C373.699,140.383,372.418,143.475,370.093,145.8z M357.119,85.47l22.363-49.168l11.526,11.526c1.276,1.275,3.095,1.848,4.87,1.522c1.774-0.321,3.279-1.493,4.025-3.135l7.933-17.441 l23.114,23.114L357.119,85.47z"></path> </g></svg>