<svg fill="#39ff14" height="250px" width="250px" version="1.1" id="Capa_1" xmlns="http://www.w3.org/2000/svg" xmlns:xlink="http://www.w3.org/1999/xlink" viewBox="0 0 454.019 454.019" xml:space="preserve"><g id="SVGRepo_bgCarrier" stroke-width="0"></g><g id="SVGRepo_tracerCarrier" stroke-linecap="round" stroke-linejoin="round"></g><g id="SVGRepo_iconCarrier"> <g> <path d="M439.314,175.377c-6.686-4.012-14.397-5.244-21.747-3.693V158.73c0-3.038-2.462-5.5-5.5-5.5H259.812v-16.687 c0-3.038-2.462-5.5-5.5-5.5h-3.16c-4.301-19.09-21.252-32.945-41.3-32.945c-9.41,0-18.367,3.067-25.711,8.704 c-7.358-5.637-16.316-8.704-25.712-8.704c-9.4,0-18.356,3.067-25.706,8.704c-7.35-5.637-16.306-8.704-25.707-8.704 c-20.048,0-36.999,13.854-41.3,32.945h-3.16c-3.038,0-5.5,2.462-5.5,5.5v37.017c-9.775-2.634-20.215-1.253-29.18,4.126 c-11.501,6.901-18.368,19.029-18.368,32.441v38.025c0,27.394,20.872,50.002,47.548,52.763v15.497 c0,18.039,4.694,35.39,13.623,50.764H5.5c-3.038,0-5.5,2.462-5.5,5.5v1.952c0,22.055,17.943,39.998,39.999,39.998h236.863 c22.055,0,39.999-17.943,39.999-39.998v-1.952c0-3.038-2.462-5.5-5.5-5.5h-65.18c1.922-3.309,3.647-6.708,5.171-10.187h140.558 c23.132,0,41.952-18.819,41.952-41.951c0-3.038-2.462-5.5-5.5-5.5h-26.328c7.222-11.421,12.018-24.011,14.188-37.288 c21.19-2.094,37.799-20.016,37.799-41.747v-29.154C454.019,190.611,448.522,180.902,439.314,175.377z M239.778,131.044h-40.06 c-1.351-5.938-3.983-11.532-7.7-16.378c5.198-3.612,11.37-5.567,17.834-5.567C223.828,109.099,235.773,118.188,239.778,131.044z M180.306,117.986c3.738,3.645,6.483,8.151,8.027,13.058h-40.021c-1.357-5.943-3.993-11.537-7.71-16.378 c5.203-3.612,11.373-5.567,17.828-5.567C166.646,109.099,174.417,112.257,180.306,117.986z M107.017,109.099 c8.22,0,15.986,3.157,21.87,8.891c3.74,3.641,6.488,8.145,8.037,13.054H77.092C81.096,118.188,93.041,109.099,107.017,109.099z M20.509,248.154v-38.025c0-9.513,4.87-18.115,13.027-23.009c7.232-4.339,15.817-5.019,23.521-2.001V289.83 C36.463,287.126,20.509,269.474,20.509,248.154z M276.861,403.626H39.999c-14.789,0-27.027-11.128-28.783-25.45h294.428 C303.888,392.498,291.65,403.626,276.861,403.626z M83.664,367.177c-10.213-14.999-15.607-32.486-15.607-50.764V142.044h180.755 v174.369c0,18.269-5.398,35.756-15.618,50.764H83.664z M391.908,345.99H255.419c2.498-8.202,3.962-16.733,4.309-25.451h162.642 C419.769,334.991,407.099,345.99,391.908,345.99z M406.567,255.618c0,19.684-6.181,38.265-17.874,53.921H259.812V164.23h146.755 V255.618z M443.019,230.503c0,15.244-11.079,27.94-25.605,30.482c0.091-1.782,0.154-3.569,0.154-5.368v-72.544 c5.322-1.814,11.143-1.231,16.087,1.736c5.864,3.519,9.365,9.702,9.365,16.54V230.503z"></path> <path d="M298.974,128.572c-1.777,2.463-1.221,5.901,1.243,7.678c0.973,0.702,2.098,1.04,3.213,1.04c1.707,0,3.39-0.792,4.465-2.283 c10.762-14.918,10.763-34.966,0.001-49.885c-7.984-11.069-7.984-25.943,0-37.012c1.777-2.464,1.221-5.901-1.243-7.678 c-2.463-1.777-5.901-1.221-7.678,1.243c-10.761,14.918-10.761,34.964,0,49.882C306.96,102.628,306.959,117.503,298.974,128.572z"></path> <path d="M330.819,128.572c-1.777,2.463-1.221,5.901,1.243,7.678c0.973,0.702,2.098,1.04,3.213,1.04c1.707,0,3.39-0.792,4.465-2.283 c10.762-14.918,10.763-34.966,0.001-49.885c-7.984-11.069-7.984-25.943,0-37.012c1.777-2.464,1.221-5.901-1.243-7.678 c-2.462-1.777-5.901-1.221-7.678,1.243c-10.761,14.918-10.761,34.964,0,49.882C338.805,102.628,338.805,117.503,330.819,128.572z"></path> <path d="M274.782,245.981h20.582l-15.4,15.4c-2.148,2.148-2.148,5.63,0,7.778c1.074,1.074,2.481,1.611,3.889,1.611 s2.815-0.537,3.889-1.611l23.179-23.179h6.995v6.994l-23.179,23.179c-2.148,2.148-2.148,5.63,0,7.778 c1.074,1.074,2.481,1.611,3.889,1.611s2.815-0.537,3.889-1.611l15.4-15.4v20.582c0,3.038,2.462,5.5,5.5,5.5s5.5-2.462,5.5-5.5 v-20.582l15.4,15.4c2.148,2.147,5.631,2.148,7.778,0c2.148-2.148,2.148-5.63,0-7.778l-23.178-23.179v-6.994h6.994l23.179,23.179 c1.074,1.074,2.481,1.611,3.889,1.611s2.815-0.537,3.889-1.611c2.148-2.148,2.148-5.63,0-7.778l-15.4-15.4h20.582 c3.038,0,5.5-2.462,5.5-5.5s-2.462-5.5-5.5-5.5h-20.582l15.4-15.4c2.148-2.148,2.148-5.63,0-7.778c-2.148-2.147-5.63-2.147-7.778,0 l-23.179,23.179h-6.994v-6.995l23.178-23.179c2.148-2.148,2.148-5.63,0-7.778c-2.148-2.147-5.631-2.147-7.778,0l-15.4,15.4v-20.582 c0-3.038-2.462-5.5-5.5-5.5s-5.5,2.462-5.5,5.5v20.582l-15.4-15.4c-2.148-2.147-5.63-2.147-7.778,0 c-2.148,2.148-2.148,5.63,0,7.778l23.179,23.179v6.995h-6.995l-23.179-23.179c-2.148-2.147-5.63-2.147-7.778,0 c-2.148,2.148-2.148,5.63,0,7.778l15.4,15.4h-20.582c-3.038,0-5.5,2.462-5.5,5.5S271.745,245.981,274.782,245.981z"></path> <path d="M220.677,253.071h-18.078l12.644-12.644c2.148-2.148,2.148-5.63,0-7.778c-2.148-2.147-5.63-2.147-7.778,0l-20.422,20.422 h-15.33l30.238-30.238c2.148-2.148,2.148-5.63,0-7.778c-2.148-2.147-5.63-2.147-7.778,0l-30.238,30.238v-15.33l20.422-20.422 c2.148-2.148,2.148-5.63,0-7.778c-2.148-2.147-5.63-2.147-7.778,0l-12.644,12.644v-18.078c0-3.038-2.462-5.5-5.5-5.5 s-5.5,2.462-5.5,5.5v18.078l-12.644-12.644c-2.148-2.147-5.63-2.147-7.778,0c-2.148,2.148-2.148,5.63,0,7.778l20.422,20.422v15.33 l-30.238-30.238c-2.148-2.147-5.63-2.147-7.778,0c-2.148,2.148-2.148,5.63,0,7.778l30.238,30.238h-15.329l-20.422-20.422 c-2.148-2.147-5.63-2.147-7.778,0c-2.148,2.148-2.148,5.63,0,7.778l12.644,12.644H96.192c-3.038,0-5.5,2.462-5.5,5.5 s2.462,5.5,5.5,5.5h18.078l-12.644,12.644c-2.148,2.148-2.148,5.63,0,7.778c1.074,1.074,2.481,1.611,3.889,1.611 s2.815-0.537,3.889-1.611l20.422-20.422h15.33l-30.238,30.238c-2.148,2.148-2.148,5.63,0,7.778 c1.074,1.074,2.481,1.611,3.889,1.611s2.815-0.537,3.889-1.611l30.238-30.238v15.33L132.513,307.6c-2.148,2.148-2.148,5.63,0,7.778 c2.148,2.147,5.63,2.147,7.778,0l12.644-12.644v18.078c0,3.038,2.462,5.5,5.5,5.5s5.5-2.462,5.5-5.5v-18.078l12.644,12.644 c1.074,1.074,2.481,1.611,3.889,1.611s2.815-0.537,3.889-1.611c2.148-2.148,2.148-5.63,0-7.778l-20.422-20.422v-15.329 l30.238,30.238c1.074,1.074,2.481,1.611,3.889,1.611s2.815-0.537,3.889-1.611c2.148-2.148,2.148-5.63,0-7.778l-30.238-30.238h15.33 l20.422,20.422c1.074,1.074,2.481,1.611,3.889,1.611s2.815-0.537,3.889-1.611c2.148-2.148,2.148-5.63,0-7.778l-12.644-12.644 h18.078c3.038,0,5.5-2.462,5.5-5.5S223.714,253.071,220.677,253.071z"></path> </g> </g></svg>