<svg fill="#39ff14" height="250px" width="250px" version="1.1" id="Capa_1" xmlns="http://www.w3.org/2000/svg" xmlns:xlink="http://www.w3.org/1999/xlink" viewBox="0 0 462.886 462.886" xml:space="preserve"><g id="SVGRepo_bgCarrier" stroke-width="0"></g><g id="SVGRepo_tracerCarrier" stroke-linecap="round" stroke-linejoin="round"></g><g id="SVGRepo_iconCarrier"> <g> <path d="M357.447,84.472L272.68,1.568c-2.137-2.091-5.553-2.091-7.691,0L180.22,84.472c-1.598,1.563-2.091,3.938-1.247,6.009 c0.844,2.07,2.857,3.423,5.093,3.423h20.021v180.491c0,3.038,2.462,5.5,5.5,5.5h12.499v16.999 c0,18.057-14.691,32.748-32.748,32.748s-32.748-14.691-32.748-32.748v-25.499c0-3.038-2.462-5.5-5.5-5.5s-5.5,2.462-5.5,5.5v25.499 c0,24.123,19.625,43.748,43.748,43.748s43.748-19.625,43.748-43.748v-16.999h63.997v177.491c0,3.038,2.463,5.5,5.5,5.5 s5.5-2.462,5.5-5.5V279.895h19.999c3.037,0,5.5-2.462,5.5-5.5V93.905h20.021c2.235,0,4.249-1.354,5.093-3.423 C359.539,88.411,359.046,86.036,357.447,84.472z M308.082,261.748v-39.85c0-3.038-2.463-5.5-5.5-5.5s-5.5,2.462-5.5,5.5v36.091 l-81.996-28.024v-61.122l107.495,36.738v61.122L308.082,261.748z M322.581,193.956l-107.495-36.738V96.097l107.495,36.738V193.956z M215.086,241.59l79.895,27.306h-79.895V241.59z M322.581,121.21l-79.895-27.306h79.895V121.21z M197.556,82.905l71.278-69.711 l71.278,69.711H197.556z"></path> <path d="M311.668,74.92c1.07,1.046,2.458,1.568,3.846,1.568c1.428,0,2.854-0.553,3.932-1.654c2.124-2.172,2.086-5.654-0.086-7.778 L293.56,41.823c-2.173-2.123-5.653-2.086-7.777,0.086c-2.124,2.172-2.086,5.654,0.086,7.778L311.668,74.92z"></path> <path d="M269.173,33.359l5.132,5.019c1.07,1.046,2.458,1.568,3.846,1.568c1.428,0,2.854-0.553,3.932-1.654 c2.124-2.172,2.086-5.654-0.086-7.778l-5.132-5.019c-2.172-2.124-5.654-2.086-7.777,0.086 C266.963,27.753,267.001,31.235,269.173,33.359z"></path> <circle cx="243.815" cy="143.679" r="8"></circle> <circle cx="298.351" cy="143.679" r="8"></circle> <path d="M271.083,161.923c5.155,0,10.002-2.008,13.647-5.653c2.148-2.148,2.148-5.63,0-7.778c-2.146-2.147-5.631-2.147-7.777,0 c-1.568,1.568-3.652,2.432-5.87,2.432c-2.217,0-4.301-0.864-5.869-2.432c-2.146-2.147-5.631-2.147-7.777,0 c-2.148,2.148-2.148,5.63,0,7.778C261.082,159.915,265.929,161.923,271.083,161.923z"></path> <path d="M149.589,242.361l3.853,9.759c1.054,2.67,3.983,4.081,6.727,3.239l10.032-3.072l-5.228,9.097 c-1.43,2.488-0.707,5.657,1.661,7.278l8.657,5.928l-10.372,1.584c-3.003,0.459-5.065,3.265-4.606,6.268 c0.458,3.003,3.262,5.064,6.268,4.606l24.144-3.688c2.232-0.341,4.029-2.012,4.532-4.213c0.502-2.201-0.392-4.486-2.255-5.762 l-15.958-10.927l9.637-16.77c1.125-1.958,0.939-4.404-0.468-6.169c-1.408-1.766-3.751-2.491-5.911-1.83l-18.493,5.664l-7.103-17.99 c-0.829-2.101-2.858-3.48-5.116-3.48c-2.258,0-4.287,1.38-5.116,3.48l-7.102,17.99l-18.493-5.664 c-2.158-0.66-4.503,0.064-5.911,1.83c-1.408,1.765-1.593,4.212-0.468,6.169l9.637,16.77l-15.958,10.927 c-1.863,1.276-2.757,3.561-2.255,5.762c0.502,2.201,2.3,3.872,4.532,4.213l24.144,3.688c0.281,0.043,0.561,0.064,0.837,0.064 c2.67,0,5.014-1.949,5.43-4.67c0.458-3.003-1.604-5.809-4.606-6.268l-10.372-1.584l8.657-5.928 c2.368-1.621,3.091-4.791,1.661-7.278l-5.228-9.098l10.033,3.073c2.746,0.843,5.673-0.57,6.727-3.239L149.589,242.361z"></path> </g> </g></svg>