<svg fill="#39ff14" height="250px" width="250px" version="1.1" id="Layer_1" xmlns="http://www.w3.org/2000/svg" xmlns:xlink="http://www.w3.org/1999/xlink" viewBox="0 0 496 496" xml:space="preserve"><g id="SVGRepo_bgCarrier" stroke-width="0"></g><g id="SVGRepo_tracerCarrier" stroke-linecap="round" stroke-linejoin="round"></g><g id="SVGRepo_iconCarrier"> <g> <g> <path d="M473.168,194.568L464,173.92v-70.296h-32V42.232c5.872-2.472,11.752-4.936,17.504-7.648l41.896-19.72l-6.816-14.488 l-41.888,19.728C382.192,48.576,314.872,63.624,248,63.624S113.808,48.576,53.304,20.104L11.408,0.384l-6.816,14.48l41.896,19.72 c5.76,2.712,11.64,5.176,17.512,7.648v61.392H32v70.296l-9.176,20.648C7.68,228.64,0,264.824,0,302.128 c0,44.176,11.176,88.032,32.336,126.824l8.976,16.464C47.448,456.648,59.2,463.624,72,463.624s24.552-6.976,30.688-18.216 l8.976-16.456C132.816,390.16,144,346.312,144,302.128c0-37.304-7.68-73.488-22.832-107.56L112,173.92v-70.296H80V48.592 C131.016,67.904,185.536,78.456,240,79.4v56.224h-32v70.296l-9.176,20.648C183.68,260.64,176,296.824,176,334.128 c0,44.176,11.176,88.032,32.336,126.824l8.976,16.464c6.136,11.232,17.888,18.208,30.688,18.208s24.552-6.976,30.688-18.216 l8.976-16.456C308.816,422.16,320,378.312,320,334.128c0-37.304-7.68-73.496-22.832-107.56L288,205.92v-70.296h-32V79.4 c54.464-0.944,108.984-11.488,160-30.808v55.032h-32v70.296l-9.176,20.648C359.68,228.64,352,264.824,352,302.128 c0,44.176,11.176,88.032,32.336,126.824l8.976,16.464c6.136,11.232,17.888,18.208,30.688,18.208s24.552-6.976,30.688-18.216 l8.976-16.456C484.816,390.16,496,346.312,496,302.128C496,264.824,488.32,228.64,473.168,194.568z M106.552,201.072 C120.784,233.08,128,267.08,128,302.128c0,41.504-10.512,82.712-30.384,119.168l-8.976,16.448c-3.328,6.088-9.704,9.88-16.64,9.88 s-13.312-3.792-16.64-9.872l-8.976-16.456C26.504,384.84,16,343.64,16,302.128c0-35.056,7.216-69.056,21.456-101.064l7.744-17.44 H64v65.136c-13.768,3.576-24,15.992-24,30.864c0,17.648,14.352,32,32,32s32-14.352,32-32c0-14.872-10.24-27.288-24-30.864v-65.136 h18.8L106.552,201.072z M72,263.624c8.816,0,16,7.176,16,16c0,8.824-7.184,16-16,16c-8.824,0-16-7.176-16-16 C56,270.8,63.176,263.624,72,263.624z M96,119.624v48H48v-16h32v-16H48v-16H96z M282.552,233.072 C296.784,265.08,304,299.08,304,334.128c0,41.504-10.512,82.712-30.384,119.168l-8.976,16.448c-3.328,6.088-9.704,9.88-16.64,9.88 c-6.936,0-13.312-3.792-16.64-9.872l-8.976-16.456C202.504,416.84,192,375.64,192,334.128c0-35.056,7.216-69.056,21.456-101.064 l7.744-17.44H240v65.136c-13.768,3.576-24,15.992-24,30.864c0,17.648,14.352,32,32,32s32-14.352,32-32 c0-14.872-10.24-27.288-24-30.864v-65.136h18.8L282.552,233.072z M248,295.624c8.816,0,16,7.176,16,16c0,8.824-7.184,16-16,16 c-8.824,0-16-7.176-16-16C232,302.8,239.176,295.624,248,295.624z M272,151.624v48h-48v-16h32v-16h-32v-16H272z M400,151.624h32 v-16h-32v-16h48v48h-48V151.624z M449.616,421.296l-8.976,16.448c-3.328,6.088-9.704,9.88-16.64,9.88 c-6.936,0-13.312-3.792-16.64-9.872l-8.976-16.456C378.504,384.84,368,343.64,368,302.128c0-35.056,7.216-69.056,21.456-101.064 l7.744-17.44H416v65.136c-13.768,3.576-24,15.992-24,30.864c0,17.648,14.352,32,32,32s32-14.352,32-32 c0-14.872-10.24-27.288-24-30.864v-65.136h18.8l7.752,17.448C472.784,233.08,480,267.08,480,302.128 C480,343.64,469.488,384.84,449.616,421.296z M424,263.624c8.816,0,16,7.176,16,16c0,8.824-7.184,16-16,16 c-8.824,0-16-7.176-16-16C408,270.8,415.176,263.624,424,263.624z"></path> </g> </g> </g></svg>