<svg fill="#39ff14" height="250px" width="250px" version="1.1" id="Capa_1" xmlns="http://www.w3.org/2000/svg" xmlns:xlink="http://www.w3.org/1999/xlink" viewBox="0 0 452.646 452.646" xml:space="preserve"><g id="SVGRepo_bgCarrier" stroke-width="0"></g><g id="SVGRepo_tracerCarrier" stroke-linecap="round" stroke-linejoin="round"></g><g id="SVGRepo_iconCarrier"> <g> <path d="M79.951,172.042c0.834,1.444,2.347,2.251,3.901,2.251c0.764,0,1.537-0.195,2.246-0.604l15.333-8.853v17.706 c0,2.485,2.015,4.5,4.5,4.5s4.5-2.015,4.5-4.5v-17.706l15.334,8.853c0.709,0.409,1.482,0.604,2.246,0.604 c1.555,0,3.067-0.808,3.901-2.251c1.242-2.152,0.505-4.904-1.647-6.147l-15.334-8.853l15.334-8.853 c2.152-1.243,2.89-3.995,1.647-6.147c-1.243-2.153-3.994-2.889-6.147-1.647l-15.334,8.853v-17.706c0-2.485-2.015-4.5-4.5-4.5 s-4.5,2.015-4.5,4.5v17.706l-15.333-8.853c-2.151-1.242-4.903-0.505-6.147,1.647c-1.242,2.152-0.505,4.904,1.647,6.147 l15.334,8.853l-15.334,8.853C79.446,167.137,78.709,169.889,79.951,172.042z"></path> <path d="M452.631,396.694c-0.54-20.092-17.055-36.271-37.273-36.271c-20.56,0-37.286,16.727-37.286,37.287 c0,3.038,2.463,5.5,5.5,5.5s5.5-2.462,5.5-5.5c0-14.495,11.792-26.287,26.286-26.287c14.408,0,26.147,11.654,26.286,26.031 c-0.09,7.272-2.964,14.095-8.116,19.248c-5.235,5.237-12.197,8.121-19.603,8.121h-61.671l-10.483-45.425h5.319 c17.813,0,32.306-14.492,32.306-32.306c0-44.939-36.561-81.5-81.5-81.5c-38.874,0-70.5-31.626-70.5-70.5V22.323 c0-3.038-2.463-5.5-5.5-5.5c-38.544,0-69.953,31.049-70.577,69.447h-87.44c-2.831,0-5.199,2.149-5.474,4.967L34.124,340.519 c-0.018,0.177-0.026,0.355-0.026,0.533c0,17.262,11.467,31.892,27.182,36.684l-10.866,47.087H5.5c-3.037,0-5.5,2.462-5.5,5.5 s2.463,5.5,5.5,5.5h408.425c10.344,0,20.067-4.028,27.382-11.343c7.09-7.091,11.092-16.449,11.328-26.438 c0.006-0.108,0.01-0.218,0.01-0.328l0.001-0.492c0-0.038,0-0.076,0-0.113v-0.002c0-0.003,0-0.006,0-0.01 C452.646,396.961,452.641,396.827,452.631,396.694z M340.964,424.823H135.381l10.483-45.425h184.617L340.964,424.823z M216.396,28.074V86.27h-54.079C162.904,55.782,186.476,30.823,216.396,28.074z M68.869,97.27h147.526v29.224v1.011H165.47 c-3.037,0-5.5,2.462-5.5,5.5s2.463,5.5,5.5,5.5h50.926v36.745H165.47c-3.037,0-5.5,2.462-5.5,5.5s2.463,5.5,5.5,5.5h50.926v8.844 c0,7.384,1.005,14.535,2.854,21.342l-54.146,4.656c-3.027,0.26-5.27,2.925-5.009,5.951c0.246,2.866,2.648,5.029,5.474,5.029 c0.157,0,0.317-0.007,0.477-0.021l56.218-4.834c0.237-0.021,0.467-0.06,0.693-0.109c3.13,7.299,7.296,14.052,12.313,20.073 l-48.337,14.134c-2.915,0.853-4.588,3.907-3.735,6.822c0.702,2.4,2.896,3.958,5.276,3.958c0.512,0,1.031-0.072,1.547-0.223 l53.924-15.768c4.428,3.92,9.281,7.369,14.485,10.263l-31.693,23.022c-2.458,1.785-3.003,5.225-1.218,7.682 c1.076,1.481,2.754,2.268,4.455,2.268c1.12,0,2.252-0.342,3.228-1.051l36.692-26.653c8.736,3.206,18.169,4.957,28.003,4.957 c35.046,0,64.189,25.707,69.592,59.252H147.076c-7.115-20.139-19.685-37.775-36.54-51.194 c-16.706-13.301-36.514-21.517-57.584-23.971L68.869,97.27z M135.333,335.844H45.631l6.255-64.215 c18.95,2.248,36.765,9.656,51.799,21.626C117.886,304.563,128.721,319.177,135.333,335.844z M45.717,346.844h322.672 c0,0.083,0.006,0.165,0.006,0.248c0,11.748-9.558,21.306-21.306,21.306H72.443C59.352,368.397,48.382,359.149,45.717,346.844z M72.188,379.391c0.086,0,0.17,0.006,0.256,0.006h62.131l-10.483,45.425H61.703L72.188,379.391z"></path> </g> </g></svg>