<svg fill="#39ff14" height="250px" width="250px" version="1.1" id="Capa_1" xmlns="http://www.w3.org/2000/svg" xmlns:xlink="http://www.w3.org/1999/xlink" viewBox="0 0 469.677 469.677" xml:space="preserve"><g id="SVGRepo_bgCarrier" stroke-width="0"></g><g id="SVGRepo_tracerCarrier" stroke-linecap="round" stroke-linejoin="round"></g><g id="SVGRepo_iconCarrier"> <g> <path d="M459.283,200.133c-0.011-0.035-0.017-0.07-0.028-0.105c-8.814-26.964-67.885-43.628-117.601-43.628 c-7.854,0-15.559,0.394-22.992,1.173c-5.763-27.063-17.592-55.503-32.987-79.048c-4.87-7.449-14.414-20.785-25.854-30.34V24.979 C259.82,11.206,248.614,0,234.841,0c-13.774,0-24.98,11.206-24.98,24.979v23.205c-11.441,9.555-20.984,22.891-25.854,30.34 c-15.395,23.545-27.225,51.984-32.987,79.048c-7.433-0.779-15.137-1.173-22.992-1.173c-49.739,0-108.844,16.68-117.6,43.628 c-6.602,20.319,14.445,49.557,23.801,61.185c17.636,21.917,41.027,41.956,64.986,55.8c-11.246,25.282-18.391,55.243-19.776,83.341 c-0.734,14.906-0.577,50.931,16.708,63.489c5.327,3.871,12.725,5.834,21.988,5.835c32.499,0,82.486-23.408,116.708-54.132 c34.222,30.724,84.212,54.132,116.707,54.132c9.262,0,16.66-1.963,21.988-5.835c17.285-12.559,17.442-48.583,16.708-63.489 c-1.385-28.098-8.531-58.059-19.776-83.341c23.958-13.844,47.351-33.883,64.985-55.8 C444.792,249.604,465.78,220.448,459.283,200.133z M304.676,164.064l-62.335,85.797V54.149c1.626,0.837,3.325,1.901,5.085,3.192 c0.253,0.218,0.519,0.42,0.799,0.604C268.271,73.243,295.451,116.092,304.676,164.064z M224.861,24.979 c0-5.503,4.477-9.979,9.98-9.979s9.979,4.477,9.979,9.979v13.964c-3.292-1.249-6.635-1.962-9.979-1.962 c-3.345,0-6.688,0.713-9.98,1.962V24.979z M221.459,57.943c0.278-0.182,0.542-0.383,0.793-0.599 c1.762-1.292,3.462-2.357,5.089-3.195v195.713l-62.336-85.799C174.231,116.089,201.413,73.239,221.459,57.943z M128.027,171.399 c8.551,0,16.892,0.5,24.845,1.483l62.334,85.796L29.173,198.232c5.027-4.918,14.263-10.604,29.001-15.729 C78.465,175.446,103.925,171.399,128.027,171.399z M24.436,212.465l186.134,60.479l-100.861,32.771 C62.572,279.711,28.091,234.89,24.436,212.465z M114.344,319.981l100.862-32.771L100.168,445.545 C89.944,425.254,91.495,368.727,114.344,319.981z M242.341,402.062v-16.766c0-4.143-3.357-7.5-7.5-7.5c-4.142,0-7.5,3.357-7.5,7.5 v16.766c-34.829,32.56-83.375,52.617-109.207,52.615c-2.244,0-4.151-0.147-5.779-0.385l114.986-158.265v59.27 c0,4.143,3.358,7.5,7.5,7.5c4.143,0,7.5-3.357,7.5-7.5v-59.27l114.987,158.265c-1.629,0.239-3.535,0.385-5.78,0.385 C325.713,454.677,277.166,434.619,242.341,402.062z M369.513,445.545L254.475,287.21l100.862,32.772 C378.186,368.727,379.737,425.255,369.513,445.545z M359.972,305.716l-100.862-32.771l108.602-35.287 c3.939-1.28,6.096-5.511,4.815-9.45c-1.279-3.94-5.515-6.091-9.45-4.815l-108.603,35.287l62.334-85.796 c7.953-0.984,16.293-1.483,24.845-1.483c24.1,0,49.56,4.047,69.852,11.104c14.739,5.126,23.976,10.811,29.003,15.729 l-48.898,15.889c-3.939,1.28-6.096,5.511-4.815,9.45c1.029,3.17,3.97,5.185,7.131,5.185c0.769,0,1.55-0.119,2.319-0.369l49-15.921 C441.59,234.89,407.11,279.71,359.972,305.716z"></path> </g> </g></svg>