<svg fill="#39ff14" height="250px" width="250px" version="1.1" id="Capa_1" xmlns="http://www.w3.org/2000/svg" xmlns:xlink="http://www.w3.org/1999/xlink" viewBox="0 0 470 470" xml:space="preserve"><g id="SVGRepo_bgCarrier" stroke-width="0"></g><g id="SVGRepo_tracerCarrier" stroke-linecap="round" stroke-linejoin="round"></g><g id="SVGRepo_iconCarrier"> <g> <path d="M414.25,206.758c-1.807-1.422-4.164-1.938-6.4-1.397c-7.423,1.793-14.98,2.86-22.531,3.209 c-12.504-21.415-29.71-40.222-49.978-54.562c-9.299-6.579-19.264-12.218-29.674-16.847h32.017 c22.738,0,41.236-18.499,41.236-41.236s-18.499-41.236-41.236-41.236c-5.739,0-11.303,1.166-16.544,3.466 c-0.13,0.05-0.26,0.104-0.389,0.162l-55.49,25.015c-0.368-3.798-3.568-6.768-7.463-6.768H242.5V7.5c0-4.142-3.358-7.5-7.5-7.5 s-7.5,3.358-7.5,7.5v69.063h-15.299c-3.895,0-7.095,2.969-7.463,6.768l-55.49-25.015c-0.128-0.058-0.257-0.111-0.388-0.162 c-5.241-2.3-10.805-3.466-16.545-3.466c-22.738,0-41.236,18.499-41.236,41.236s18.499,41.236,41.236,41.236h32.017 c-10.41,4.63-20.375,10.268-29.674,16.848c-20.268,14.339-37.473,33.146-49.978,54.561c-7.552-0.35-15.108-1.416-22.531-3.209 c-2.236-0.54-4.594-0.025-6.4,1.397c-1.806,1.422-2.861,3.594-2.861,5.893v30.693c0,3.592,2.547,6.681,6.075,7.363 c2.573,0.498,5.161,0.933,7.757,1.307c-3.741,14.326-5.64,29.108-5.64,44.066C61.081,391.98,139.101,470,235,470 s173.919-78.02,173.919-173.919c0-14.96-1.899-29.741-5.64-44.066c2.596-0.374,5.183-0.809,7.757-1.307 c3.527-0.683,6.075-3.771,6.075-7.363v-30.693C417.111,210.352,416.057,208.18,414.25,206.758z M380.146,238.677 c-59.881,0-114.667-37.02-137.104-92.34c1.093-3.014,2.102-6.073,3.024-9.176h8.901c9.946,27.6,29.183,50.707,55.852,66.999 c20.936,12.788,44.829,19.548,69.096,19.548c7.405,0,14.837-0.627,22.196-1.869v15.187 C394.83,238.123,387.467,238.677,380.146,238.677z M367.288,208.009c-17.108-1.875-33.722-7.531-48.65-16.65 c-20.487-12.515-36.002-29.489-45.512-49.58C311.393,151.274,345.283,175.106,367.288,208.009z M326.566,72.149 c0.119-0.046,0.236-0.096,0.353-0.148c3.402-1.534,7.024-2.312,10.765-2.312c14.467,0,26.236,11.77,26.236,26.236 s-11.77,26.236-26.236,26.236h-42.847l45.765-19.327c3.815-1.611,5.603-6.011,3.991-9.827s-6.01-5.604-9.827-3.991l-69.467,29.337 V99.769L326.566,72.149z M219.701,91.563h30.598v30.598h-30.598V91.563z M106.08,95.925c0-14.467,11.77-26.236,26.236-26.236 c3.741,0,7.363,0.778,10.765,2.312c0.116,0.053,0.233,0.102,0.352,0.148l61.269,27.62v18.584l-69.467-29.337 c-3.816-1.612-8.216,0.176-9.827,3.991c-1.611,3.816,0.176,8.216,3.991,9.827l45.765,19.327h-42.847 C117.849,122.161,106.08,110.392,106.08,95.925z M196.874,141.779c-9.51,20.091-25.026,37.065-45.512,49.58 c-14.928,9.119-31.542,14.775-48.65,16.65C124.717,175.107,158.607,151.275,196.874,141.779z M67.889,221.839 c7.359,1.242,14.792,1.869,22.196,1.869c24.267,0,48.16-6.759,69.096-19.548c26.67-16.292,45.906-39.399,55.852-66.999h15.319 C210.466,197.4,154.028,238.677,89.854,238.677c-7.321,0-14.685-0.554-21.965-1.651V221.839z M393.919,296.081 C393.919,383.709,322.628,455,235,455S76.081,383.709,76.081,296.081c0-14.49,1.942-28.793,5.776-42.605 c2.668,0.133,5.335,0.202,7.998,0.202c62.187,0,117.774-35.197,145.153-88.844c12.351,24.213,30.556,44.91,53.366,60.446 c27.275,18.578,59.01,28.398,91.772,28.398c2.663,0,5.33-0.069,7.998-0.202C391.977,267.286,393.919,281.59,393.919,296.081z"></path> <path d="M154.462,396.663c-30.747-24.672-48.381-61.333-48.381-100.583c0-4.142-3.358-7.5-7.5-7.5s-7.5,3.358-7.5,7.5 c0,43.822,19.68,84.747,53.994,112.282c1.384,1.111,3.042,1.651,4.689,1.651c2.196,0,4.373-0.96,5.854-2.807 C158.21,403.976,157.692,399.255,154.462,396.663z"></path> <path d="M235,425c-19.838,0-38.886-4.414-56.613-13.118c-3.717-1.824-8.212-0.292-10.038,3.427 c-1.826,3.718-0.292,8.212,3.427,10.038C191.578,435.07,212.85,440,235,440c4.142,0,7.5-3.358,7.5-7.5S239.142,425,235,425z"></path> </g> </g></svg>