<svg fill="#39ff14" height="250px" width="250px" version="1.1" id="Capa_1" xmlns="http://www.w3.org/2000/svg" xmlns:xlink="http://www.w3.org/1999/xlink" viewBox="0 0 427.141 427.141" xml:space="preserve"><g id="SVGRepo_bgCarrier" stroke-width="0"></g><g id="SVGRepo_tracerCarrier" stroke-linecap="round" stroke-linejoin="round"></g><g id="SVGRepo_iconCarrier"> <g> <path d="M425.195,330.81c-1.61-2.575-5.003-3.356-7.58-1.746l-35.361,22.121c-5-3.453-10.086-6.788-15.244-10.012l31.79-19.886 c2.575-1.611,3.357-5.004,1.746-7.58c-1.61-2.575-5.003-3.357-7.58-1.746l-36.497,22.831c-3.72-2.18-7.468-4.309-11.245-6.379 l30.936-19.353c2.575-1.611,3.357-5.004,1.746-7.58c-1.611-2.574-5.004-3.357-7.58-1.746l-36.326,22.724 c-3.997-2.056-8.012-4.061-12.048-6.003l28.863-18.052c2.575-1.611,3.357-5.004,1.747-7.58c-1.61-2.574-5.004-3.355-7.58-1.747 l-34.919,21.84c-3.404-1.538-6.813-3.05-10.227-4.512l27.683-21.629c2.394-1.87,2.818-5.327,0.948-7.72 c-1.872-2.394-5.327-2.819-7.72-0.948l-32.586,25.461c-4.169-1.681-8.338-3.323-12.499-4.897l26.982-21.081 c2.394-1.87,2.818-5.327,0.948-7.72s-5.327-2.819-7.72-0.948l-32.377,25.296c-3.861-1.374-7.713-2.717-11.545-4.004l27.167-21.223 c2.394-1.87,2.818-5.327,0.948-7.72c-1.87-2.395-5.327-2.819-7.72-0.948l-33.018,25.793c-5.571-1.756-11.092-3.427-16.547-5.008 l28.761-22.471c2.394-1.87,2.818-5.327,0.948-7.72c-1.871-2.394-5.327-2.819-7.72-0.948l-35.139,27.456 c-5.501-1.491-10.92-2.899-16.232-4.22l27.465-21.459c2.394-1.87,2.818-5.327,0.948-7.72s-5.327-2.819-7.72-0.948l-34.366,26.85 c-5.196-1.199-10.283-2.326-15.213-3.368c-1.364-0.289-2.733-0.553-4.099-0.831l26.488-20.695c2.394-1.87,2.818-5.327,0.948-7.72 c-1.87-2.393-5.327-2.819-7.72-0.948l-34.063,26.613c-4.215-0.746-8.442-1.429-12.674-2.081l26.878-21 c2.394-1.87,2.818-5.327,0.948-7.72c-1.871-2.394-5.327-2.818-7.72-0.948l-35.237,27.531c-5.018-0.636-10.048-1.189-15.084-1.692 l26.594-20.778c2.394-1.87,2.818-5.327,0.948-7.72c-1.871-2.394-5.327-2.818-7.72-0.948l-35.628,27.837 c-0.089,0.07-0.157,0.155-0.241,0.229c-21.532-1.542-43.186-1.885-64.857-1.001c4.789-4.072,10.93-9.196,18.285-15.133l44.239,6.84 c0.285,0.044,0.568,0.065,0.847,0.065c2.667,0,5.008-1.943,5.429-4.661c0.464-3.002-1.593-5.812-4.595-6.276l-34.205-5.289 c5.445-4.271,11.354-8.821,17.689-13.59l39.119,10.698c0.486,0.133,0.974,0.196,1.454,0.196c2.417,0,4.633-1.606,5.302-4.051 c0.801-2.93-0.924-5.955-3.854-6.756l-30.801-8.423c6.571-4.82,13.518-9.807,20.805-14.902l39.982,10.934 c0.485,0.133,0.974,0.196,1.454,0.196c2.417,0,4.633-1.606,5.302-4.051c0.801-2.93-0.924-5.955-3.854-6.756l-31.043-8.489 c5.93-4.033,12.051-8.111,18.353-12.209l40.636,11.112c0.486,0.133,0.974,0.196,1.454,0.196c2.417,0,4.633-1.606,5.302-4.051 c0.801-2.93-0.924-5.955-3.854-6.756l-31.053-8.492c7.177-4.521,14.686-9.123,22.491-13.753c0.032,0.009,0.061,0.022,0.093,0.031 l40.982,11.207c0.486,0.133,0.974,0.196,1.454,0.196c2.417,0,4.633-1.606,5.302-4.051c0.801-2.93-0.924-5.955-3.854-6.756 l-30.659-8.384c7.657-4.376,15.559-8.749,23.677-13.073l42.356,16.304c0.649,0.25,1.317,0.369,1.975,0.369 c2.209,0,4.293-1.341,5.134-3.526c1.091-2.834-0.322-6.017-3.157-7.108l-33.304-12.819c7.262-3.709,14.676-7.361,22.223-10.928 l41.281,19.229c0.751,0.35,1.541,0.516,2.319,0.516c2.072,0,4.057-1.177,4.989-3.179c1.282-2.753,0.09-6.025-2.664-7.308 l-32.834-15.294c7.85-3.529,15.824-6.951,23.906-10.231l36.695,21.327c0.87,0.505,1.82,0.746,2.758,0.746 c1.896,0,3.74-0.98,4.761-2.737c1.526-2.626,0.634-5.993-1.992-7.519L289.42,89.345c5.904-2.25,11.858-4.417,17.852-6.49 l24.589,14.728v18.479c-21.672,2.717-38.497,21.245-38.497,43.641c0,24.26,19.737,43.997,43.997,43.997 s43.997-19.737,43.997-43.997c0-22.396-16.825-40.924-38.497-43.641V104.17l2.745,1.644c0.885,0.53,1.859,0.783,2.821,0.783 c1.87,0,3.693-0.954,4.724-2.675c1.561-2.606,0.714-5.984-1.892-7.544l-30.211-18.094c5.966-1.895,11.966-3.688,17.993-5.37 l37.421,23.575c0.911,0.574,1.924,0.847,2.926,0.847c1.827,0,3.613-0.909,4.659-2.569c1.619-2.57,0.849-5.966-1.722-7.585 l-28.726-18.097c5.966-1.47,11.952-2.819,17.951-4.043c0.353,0.295,0.745,0.555,1.18,0.76l38.434,18.11 c0.757,0.357,1.555,0.526,2.34,0.526c2.063,0,4.042-1.167,4.979-3.157c1.295-2.748,0.117-6.025-2.631-7.319l-25.976-12.24 c3.805-0.601,7.611-1.153,11.419-1.64c3.013-0.385,5.144-3.14,4.758-6.153c-0.385-3.013-3.138-5.142-6.153-4.758 c-7.011,0.896-14.117,2.02-21.294,3.321L387.973,6.6c0.607-2.976-1.313-5.881-4.289-6.489c-2.974-0.604-5.881,1.313-6.488,4.29 l-10.279,50.366c-7.934,1.659-15.963,3.565-24.076,5.702l9.49-46.5c0.607-2.976-1.313-5.881-4.29-6.489 c-2.973-0.607-5.881,1.313-6.488,4.29l-10.609,51.979c-5.817,1.681-11.677,3.485-17.576,5.404l9.287-45.503 c0.607-2.976-1.313-5.881-4.29-6.489c-2.973-0.604-5.881,1.313-6.488,4.29l-10.563,51.754c-5.946,2.078-11.933,4.282-17.953,6.596 l8.734-42.78c0.608-2.976-1.312-5.881-4.289-6.489c-2.973-0.609-5.881,1.313-6.489,4.289l-10.171,49.815 c-4.936,2.011-9.898,4.108-14.878,6.274l4.351-44.683c0.294-3.023-1.918-5.713-4.941-6.007c-3.037-0.294-5.713,1.918-6.007,4.941 l-4.955,50.879c-5.716,2.604-11.462,5.314-17.23,8.116l4.261-43.739c0.294-3.023-1.917-5.713-4.941-6.007 c-3.023-0.299-5.713,1.918-6.007,4.941l-4.925,50.557c-5.201,2.629-10.421,5.336-15.656,8.119l4.299-44.117 c0.294-3.023-1.917-5.713-4.94-6.008c-3.039-0.299-5.713,1.917-6.008,4.94l-5.019,51.5c-6.888,3.793-13.799,7.714-20.73,11.764 l4.539-46.611c0.294-3.023-1.918-5.713-4.941-6.007c-3.033-0.297-5.713,1.917-6.007,4.941l-5.317,54.594 c-0.002,0.017-0.001,0.034-0.002,0.051c-6.582,3.969-13.178,8.049-19.785,12.241l4.344-44.612c0.294-3.023-1.918-5.713-4.941-6.007 c-3.037-0.3-5.713,1.918-6.007,4.941l-5.187,53.262c-7.725,5.045-15.183,10.058-22.343,14.99l4.182-42.94 c0.294-3.023-1.918-5.713-4.941-6.007c-3.037-0.292-5.713,1.918-6.007,4.941l-5.092,52.288c-5.156,3.65-10.13,7.237-14.912,10.739 l4.172-42.843c0.294-3.023-1.918-5.713-4.941-6.007c-3.037-0.3-5.713,1.918-6.007,4.941l-5.137,52.753 c-5.884,4.427-11.406,8.67-16.537,12.682l3.951-40.572c0.294-3.023-1.918-5.713-4.941-6.007c-3.038-0.3-5.713,1.918-6.007,4.941 l-4.98,51.135c-20.193,16.247-31.841,26.842-32.078,27.06c-2.242,2.049-2.397,5.528-0.348,7.77c1.084,1.187,2.57,1.789,4.061,1.789 c0.073,0,5.072-0.32,7.422-0.452c25.033-1.405,50.064-1.15,74.92,0.747l18.94,27.277c1.068,1.539,2.781,2.364,4.522,2.364 c1.082,0,2.176-0.319,3.132-0.983c2.495-1.732,3.113-5.159,1.381-7.654l-13.688-19.714c4.934,0.503,9.86,1.063,14.776,1.697 l14.992,27.879c0.993,1.847,2.89,2.896,4.849,2.896c0.879,0,1.771-0.211,2.6-0.657c2.675-1.439,3.678-4.774,2.239-7.449 l-11.16-20.754c6.034,0.927,12.05,1.953,18.048,3.077l12.166,22.624c-0.006,0.1-0.016,0.199-0.016,0.3v27.334 c-26.194,2.757-46.677,24.973-46.677,51.886c0,28.771,23.407,52.178,52.177,52.178c28.771,0,52.178-23.407,52.178-52.178 c0-26.913-20.483-49.128-46.678-51.886V304.59c0.048-0.023,0.097-0.041,0.144-0.066c2.675-1.439,3.678-4.774,2.239-7.449 l-11.541-21.463c4.923,1.049,9.992,2.179,15.178,3.385l16.261,30.239c0.993,1.847,2.89,2.896,4.849,2.896 c0.879,0,1.771-0.211,2.6-0.657c2.675-1.439,3.678-4.774,2.239-7.449l-11.588-21.55c6.01,1.514,12.139,3.126,18.38,4.859 l16.548,30.773c0.993,1.847,2.89,2.896,4.849,2.896c0.879,0,1.771-0.211,2.6-0.657c2.675-1.439,3.678-4.774,2.239-7.449 l-11.452-21.296c6.131,1.838,12.339,3.794,18.594,5.856l14.285,34.469c0.878,2.117,2.925,3.396,5.083,3.396 c0.702,0,1.415-0.135,2.104-0.42c2.806-1.163,4.138-4.381,2.975-7.187l-10.576-25.518c5.542,1.961,11.106,4.016,16.681,6.165 l11.939,35.501c0.772,2.298,2.915,3.749,5.212,3.749c0.581,0,1.172-0.093,1.753-0.289c2.879-0.968,4.428-4.087,3.46-6.966 l-8.962-26.649c5.785,2.391,11.561,4.894,17.318,7.502l8.07,33.878c0.602,2.527,2.857,4.227,5.346,4.227 c0.422,0,0.851-0.049,1.279-0.151c2.955-0.704,4.78-3.67,4.076-6.625l-6.043-25.369c3.947,1.918,7.872,3.901,11.778,5.93 l8.017,35.735c0.574,2.559,2.845,4.297,5.362,4.297c0.398,0,0.804-0.043,1.209-0.134c2.964-0.665,4.828-3.607,4.163-6.571 l-5.924-26.409c3.751,2.101,7.476,4.25,11.164,6.462l7.121,35.465c0.525,2.613,2.82,4.418,5.387,4.418 c0.359,0,0.723-0.035,1.088-0.108c2.979-0.598,4.908-3.497,4.31-6.475l-5.073-25.265c3.472,2.263,6.916,4.565,10.308,6.937 c0.046,0.316,0.115,0.632,0.219,0.946l11.016,33.243c0.765,2.31,2.914,3.771,5.22,3.771c0.574,0,1.157-0.09,1.731-0.281 c2.883-0.956,4.446-4.067,3.491-6.951l-6.441-19.438c1.653,1.295,3.308,2.589,4.934,3.913c1.02,0.831,2.249,1.235,3.469,1.235 c1.597,0,3.181-0.692,4.269-2.027c1.918-2.355,1.563-5.819-0.792-7.737c-4.23-3.444-8.556-6.78-12.953-10.029l31.506-19.709 C426.025,336.779,426.806,333.386,425.195,330.81z M370.358,159.702c0,18.194-14.802,32.997-32.997,32.997 s-32.997-14.802-32.997-32.997s14.802-32.997,32.997-32.997S370.358,141.508,370.358,159.702z M208.41,374.964 c0,22.706-18.472,41.178-41.178,41.178c-22.705,0-41.177-18.472-41.177-41.178s18.472-41.178,41.177-41.178 C189.938,333.786,208.41,352.258,208.41,374.964z"></path> <path d="M337.361,174.95c-8.407,0-15.247-6.84-15.247-15.248c0-3.038-2.462-5.5-5.5-5.5s-5.5,2.462-5.5,5.5 c0,14.473,11.774,26.248,26.247,26.248c3.038,0,5.5-2.462,5.5-5.5S340.399,174.95,337.361,174.95z"></path> <path d="M331.861,138.955c0,3.038,2.462,5.5,5.5,5.5c8.407,0,15.247,6.84,15.247,15.247c0,3.038,2.462,5.5,5.5,5.5 s5.5-2.462,5.5-5.5c0-14.473-11.774-26.247-26.247-26.247C334.324,133.455,331.861,135.917,331.861,138.955z"></path> <path d="M167.232,399.873c-13.735,0-24.91-11.174-24.91-24.91c0-3.038-2.462-5.5-5.5-5.5s-5.5,2.462-5.5,5.5 c0,19.801,16.109,35.91,35.91,35.91c3.038,0,5.5-2.462,5.5-5.5S170.27,399.873,167.232,399.873z"></path> <path d="M161.732,344.554c0,3.038,2.462,5.5,5.5,5.5c13.735,0,24.91,11.175,24.91,24.91c0,3.038,2.462,5.5,5.5,5.5 s5.5-2.462,5.5-5.5c0-19.801-16.109-35.91-35.91-35.91C164.195,339.054,161.732,341.516,161.732,344.554z"></path> </g> </g></svg>